PathFileType  4	(X/Y/Z) C:\Users\antoi\Documents\MyRepositories\mobilecap\ResultsAnalysis
DataRate	CameraRate	NumFrames	NumMarkers	Units	OrigDataRate	OrigDataStartFrame	OrigNumFrames
100.0	100.0	5	51	mm	100.0	1	171
Frame#	Time	r_knee			r_shank_antsup			r_ankle			r_calc			r_5meta			r_toe			L_knee			L_shank_antsup			L_ankle			L_calc			L_5meta			L_toe			r_sh2			r_sh3			r_sh4			L_sh2			L_sh3			r_thigh1			r_thigh2			r_thigh3			r_thigh4			r_thigh5			L_thigh1			L_thigh2			L_thigh3			L_thigh4			r.ASIS			r.PSIS			L.ASIS			L.PSIS			C7			R_Shoulder			L_Shoulder			R_Sternum			L_Sternum			R_humerus			R_elbow_med			R_elbow_lat			R_forearm			R_wrist_radius			R_wrist_ulna			L_humerus			L_elbow_med			L_elbow_lat			L_forearm			L_wrist_radius			L_wrist_ulna			R_HJC			L_HJC			R_HJC_reg			L_HJC_reg			
		X1	Y1	Z1	X2	Y2	Z2	X3	Y3	Z3	X4	Y4	Z4	X5	Y5	Z5	X6	Y6	Z6	X7	Y7	Z7	X8	Y8	Z8	X9	Y9	Z9	X10	Y10	Z10	X11	Y11	Z11	X12	Y12	Z12	X13	Y13	Z13	X14	Y14	Z14	X15	Y15	Z15	X16	Y16	Z16	X17	Y17	Z17	X18	Y18	Z18	X19	Y19	Z19	X20	Y20	Z20	X21	Y21	Z21	X22	Y22	Z22	X23	Y23	Z23	X24	Y24	Z24	X25	Y25	Z25	X26	Y26	Z26	X27	Y27	Z27	X28	Y28	Z28	X29	Y29	Z29	X30	Y30	Z30	X31	Y31	Z31	X32	Y32	Z32	X33	Y33	Z33	X34	Y34	Z34	X35	Y35	Z35	X36	Y36	Z36	X37	Y37	Z37	X38	Y38	Z38	X39	Y39	Z39	X40	Y40	Z40	X41	Y41	Z41	X42	Y42	Z42	X43	Y43	Z43	X44	Y44	Z44	X45	Y45	Z45	X46	Y46	Z46	X47	Y47	Z47	X48	Y48	Z48	X49	Y49	Z49	X50	Y50	Z50	X51	Y51	Z51	

1	0.00000000	66.51233	593.51438	-125.40818	129.12088	455.54709	-136.22451	153.21778	89.08768	-153.38969	103.19916	67.61064	-221.57027	296.73827	49.56497	-130.80200	329.68894	89.38645	-176.58317	-291.12422	581.22621	-425.93736	-362.88004	386.79230	-394.71347	-616.11613	199.02692	-371.86704	-675.74938	208.60760	-300.80867	-558.16430	50.45295	-409.03509	-504.81538	54.01020	-353.52127	153.84864	345.62309	-146.64815	66.69427	435.56137	-95.18646	88.04980	324.33010	-98.76740	-418.52916	431.83906	-446.45787	-495.02606	346.87792	-420.52174	-3.01880	871.79806	-85.70435	50.75339	775.65947	-94.22913	6.02038	725.55219	-88.29865	-103.72041	823.79852	-109.17156	-48.23925	719.17684	-108.37404	-135.12233	848.42037	-448.44894	-172.97226	719.25350	-444.66444	-239.63902	882.85296	-451.49750	-279.61756	751.69726	-445.54775	-33.42386	1130.04539	-139.27471	-229.78868	1160.86328	-209.93139	-62.44710	1115.16476	-419.94127	-236.18329	1163.64525	-301.39525	-144.59207	1648.37487	-271.15473	-74.98751	1581.29745	-98.86079	-86.08315	1609.28000	-451.16165	-13.74050	1542.67913	-248.66613	-13.76207	1546.96578	-305.09034	-156.72336	1323.17774	-33.15911	-274.90022	1240.00415	-68.03064	-258.40208	1257.36584	2.81156	-207.75576	1046.48723	26.41910	-191.71691	952.01526	23.22270	-222.77296	955.23856	47.33531	-116.73691	1315.42492	-523.98103	-216.43751	1251.27357	-482.78772	-193.32890	1247.14591	-555.33333	-131.58235	1050.92743	-589.70869	-113.75574	972.98371	-585.79467	-138.61433	978.85929	-608.01922	-117.22658	1034.88482	-167.27412	-144.98816	1030.61794	-362.74246	-110.02416	1033.10778	-177.15423	-123.02430	1038.76360	-363.10098	
2	0.01000000	77.17679	595.27235	-123.41425	138.04563	456.18021	-134.53240	154.46963	89.06529	-152.62220	104.07343	68.48151	-220.68855	298.03231	47.49868	-130.90406	331.49714	87.05519	-176.53343	-268.56281	579.62123	-427.94082	-344.71994	387.18191	-396.27652	-602.67631	208.26528	-371.93585	-660.59323	221.89436	-300.54955	-554.40604	56.72349	-408.62909	-500.43129	56.34804	-353.58988	160.36847	345.80711	-145.14188	75.85454	437.36856	-92.57398	95.27975	325.85484	-95.96710	-398.82515	433.99362	-447.74397	-477.96079	351.62109	-421.35692	8.08127	874.10130	-83.59324	61.59512	777.66363	-91.45113	16.78702	727.84397	-86.20750	-92.84439	826.46951	-107.82034	-37.41172	721.49127	-106.70554	-118.64965	849.60405	-448.32563	-153.81021	719.77843	-446.11389	-223.89122	881.70537	-449.93645	-260.61355	749.97225	-446.02859	-20.66954	1133.43341	-137.69930	-217.21604	1163.19571	-209.83084	-49.74415	1117.67641	-418.56514	-223.69919	1165.83756	-301.45451	-131.48607	1650.90500	-267.14395	-61.93105	1582.88148	-95.52642	-72.78506	1613.62466	-447.42065	-0.83578	1545.26503	-245.35237	-0.50016	1549.75426	-301.66012	-142.62773	1324.14516	-31.32901	-260.46706	1240.92388	-66.63126	-244.03221	1257.91794	4.32199	-193.08771	1046.95346	27.26530	-177.47299	952.42097	23.59671	-208.34597	955.63436	47.79657	-105.32725	1320.33547	-521.29563	-205.06750	1257.22957	-479.74851	-182.53485	1252.83217	-552.36807	-121.99828	1056.23652	-587.19345	-105.01577	977.94332	-583.57345	-129.83885	984.25508	-605.70346	-104.49092	1037.90488	-166.11046	-131.65396	1032.90555	-361.64398	-96.75094	1035.79256	-175.44460	-109.92134	1041.15807	-361.55792	
3	0.02000000	87.48446	596.89852	-121.61584	146.60869	456.73612	-133.02513	155.67534	89.08748	-151.99653	104.89618	69.30384	-219.92710	299.24717	45.60698	-131.02786	333.24909	84.83587	-176.53081	-245.70193	578.02653	-429.88611	-326.16370	387.65279	-397.82877	-588.66544	217.52171	-372.01488	-644.71031	235.17593	-300.29821	-550.19883	63.27856	-408.27480	-495.67419	58.91722	-353.75450	166.63895	345.94403	-143.82407	84.60579	439.05288	-90.28223	102.13304	327.25919	-93.55155	-378.76046	436.21641	-448.99712	-460.40430	356.37228	-422.19241	19.06105	876.21954	-81.53640	72.13784	779.42221	-88.80860	27.20877	729.95202	-84.27147	-82.06462	829.11096	-106.63205	-26.91331	723.73676	-105.23856	-102.06801	850.82171	-448.20396	-134.43180	720.33845	-447.50692	-208.04687	880.50384	-448.42478	-241.44774	748.18554	-446.48167	-7.90566	1136.70717	-136.21478	-204.68940	1165.56240	-209.58003	-37.19442	1120.20287	-417.22241	-211.29489	1168.04340	-301.34932	-118.45712	1653.42890	-263.16595	-48.90849	1584.45823	-92.22341	-59.54431	1617.91031	-443.67432	12.00547	1547.81049	-242.08229	12.66936	1552.53631	-298.26507	-128.61898	1325.14949	-29.45727	-246.17329	1241.89209	-65.17306	-229.79474	1258.52034	5.88499	-178.41154	1047.50244	28.12867	-163.10551	952.92509	23.99892	-193.81654	956.09932	48.27397	-93.94927	1325.21778	-518.63824	-193.79509	1263.17360	-476.85400	-171.73552	1258.49955	-549.48600	-112.38663	1061.52375	-584.68002	-96.16285	982.87835	-581.32449	-120.92803	989.60110	-603.36700	-91.78571	1040.86299	-164.96014	-118.50656	1035.21904	-360.53936	-83.59033	1038.52394	-173.76331	-96.99787	1043.55752	-360.00668	
4	0.03000000	97.13978	598.29057	-120.16127	154.49981	457.14689	-131.82846	156.79281	89.18970	-151.62240	105.63419	70.04059	-219.37742	300.32477	44.02084	-131.18869	334.89533	82.81101	-176.61141	-222.32841	576.48061	-431.72199	-306.87093	388.28155	-399.36888	-573.61542	226.77695	-372.12221	-627.51234	248.39656	-300.06172	-545.15056	70.31116	-408.01176	-490.21945	61.90021	-354.09502	172.44453	345.99263	-142.82444	92.58801	440.51182	-88.56531	108.27414	328.44453	-91.82617	-358.04867	438.55909	-450.19293	-441.97399	361.13655	-423.03024	29.83552	878.03277	-79.60109	82.17881	780.77645	-86.43455	37.03662	731.75241	-82.61694	-71.43762	831.69082	-105.70979	-16.96991	725.86538	-104.11519	-85.29762	852.10949	-448.08360	-114.68658	720.97456	-448.78727	-192.03058	879.22763	-447.00505	-222.00115	746.31077	-446.88003	4.86234	1139.77312	-134.90089	-192.23736	1167.98439	-209.05418	-24.92687	1122.75363	-415.94762	-199.04034	1170.26668	-300.94574	-105.56894	1655.93945	-259.24495	-35.94840	1586.01499	-88.97711	-46.42941	1622.08499	-439.92810	24.73262	1550.28489	-238.89362	25.66604	1555.30410	-294.94003	-114.77521	1326.21006	-27.51175	-232.13251	1242.93483	-63.59978	-215.78878	1259.20316	7.54911	-163.72885	1048.19204	29.02680	-148.52560	953.59956	24.45231	-179.12613	956.67949	48.78135	-82.63482	1330.03550	-516.03730	-182.70451	1269.06969	-474.22492	-160.92578	1264.10887	-546.76398	-102.72792	1066.75179	-582.17463	-87.09313	987.75723	-579.02486	-111.77617	994.83830	-601.00062	-79.13539	1043.70489	-163.83724	-105.70034	1037.57509	-359.42617	-70.62357	1041.33740	-172.13096	-84.41694	1045.96302	-358.43596	
5	0.04000000	105.94716	599.39454	-119.12240	161.50510	457.36624	-130.97970	157.78970	89.39128	-151.55379	106.27925	70.67291	-219.08331	301.23735	42.80173	-131.39068	336.39754	81.01597	-176.79379	-198.37752	575.06372	-433.40890	-286.62050	389.13489	-400.90243	-557.24499	235.95296	-372.28346	-608.66423	261.41150	-299.84306	-538.94970	77.86450	-407.85796	-483.80428	65.39957	-354.66236	177.63366	345.92630	-142.18379	99.54260	441.68107	-87.55908	113.45961	329.35280	-90.95368	-336.53907	441.04636	-451.31959	-422.47568	365.91203	-423.87345	40.36533	879.51964	-77.86975	91.65638	781.69971	-84.44816	46.16193	733.21268	-81.31921	-60.98107	834.18029	-105.06733	-7.65711	727.86017	-103.38220	-68.31777	853.50800	-447.96178	-94.53641	721.73778	-449.90379	-175.81124	877.90818	-445.70984	-202.23560	744.38320	-447.20101	17.59735	1142.57304	-133.81758	-179.87367	1170.46105	-208.17832	-13.03492	1125.33092	-414.77503	-186.99427	1172.49688	-300.16593	-92.87109	1658.42687	-255.39437	-23.07855	1587.53194	-85.80580	-33.53073	1626.10797	-436.20523	37.30580	1552.67177	-235.81664	38.42277	1558.04550	-291.72026	-101.16189	1327.32007	-25.47852	-218.42272	1244.04477	-61.86453	-202.06677	1259.96600	9.35373	-149.06127	1049.04081	29.97685	-133.70706	954.47366	24.97196	-164.28311	957.38534	49.32916	-71.42098	1334.74084	-513.52123	-171.86252	1274.84438	-471.94014	-150.10918	1269.59069	-544.26563	-93.01681	1071.85893	-579.69122	-77.73299	992.53662	-576.66118	-102.32876	999.89648	-598.61262	-66.56477	1046.39008	-162.75892	-93.34055	1039.97634	-358.31072	-57.89454	1044.24874	-170.56097	-72.31130	1048.37055	-356.83596	
